<svg width="31" height="31" viewBox="0 0 31 31" fill="none" xmlns="http://www.w3.org/2000/svg">
<g filter="url(#filter0_d_2_6)">
<rect x="2" y="2" width="27" height="27" rx="13.5" fill="#F3F5FA"/>
</g>
<path d="M16.3095 22.6C16.2014 22.6005 16.0942 22.5794 15.9944 22.5379C15.8945 22.4965 15.8039 22.4355 15.7279 22.3585L10.2407 16.8714C10.0866 16.717 10 16.5078 10 16.2897C10 16.0716 10.0866 15.8624 10.2407 15.7081L15.7279 10.2209C15.8839 10.0755 16.0903 9.99637 16.3035 10.0001C16.5168 10.0039 16.7202 10.0903 16.871 10.2411C17.0218 10.3919 17.1082 10.5953 17.1119 10.8086C17.1157 11.0218 17.0366 11.2282 16.8912 11.3842L11.9856 16.2897L16.8912 21.1953C17.0453 21.3496 17.1319 21.5588 17.1319 21.7769C17.1319 21.995 17.0453 22.2042 16.8912 22.3585C16.8152 22.4355 16.7246 22.4965 16.6247 22.5379C16.5248 22.5794 16.4177 22.6005 16.3095 22.6Z" fill="black"/>
<defs>
<filter id="filter0_d_2_6" x="0" y="0" width="31" height="31" filterUnits="userSpaceOnUse" color-interpolation-filters="sRGB">
<feFlood flood-opacity="0" result="BackgroundImageFix"/>
<feColorMatrix in="SourceAlpha" type="matrix" values="0 0 0 0 0 0 0 0 0 0 0 0 0 0 0 0 0 0 127 0" result="hardAlpha"/>
<feOffset/>
<feGaussianBlur stdDeviation="1"/>
<feComposite in2="hardAlpha" operator="out"/>
<feColorMatrix type="matrix" values="0 0 0 0 0 0 0 0 0 0 0 0 0 0 0 0 0 0 0.25 0"/>
<feBlend mode="normal" in2="BackgroundImageFix" result="effect1_dropShadow_2_6"/>
<feBlend mode="normal" in="SourceGraphic" in2="effect1_dropShadow_2_6" result="shape"/>
</filter>
</defs>
</svg>
