<svg width="18" height="18" viewBox="0 0 18 18" fill="none" xmlns="http://www.w3.org/2000/svg">
<path d="M16.8773 1.13749C16.3898 0.649994 15.6023 0.649994 15.1148 1.13749L9.00234 7.23749L2.88984 1.12499C2.40234 0.637494 1.61484 0.637494 1.12734 1.12499C0.639844 1.61249 0.639844 2.39999 1.12734 2.88749L7.23984 8.99999L1.12734 15.1125C0.639844 15.6 0.639844 16.3875 1.12734 16.875C1.61484 17.3625 2.40234 17.3625 2.88984 16.875L9.00234 10.7625L15.1148 16.875C15.6023 17.3625 16.3898 17.3625 16.8773 16.875C17.3648 16.3875 17.3648 15.6 16.8773 15.1125L10.7648 8.99999L16.8773 2.88749C17.3523 2.41249 17.3523 1.61249 16.8773 1.13749Z" fill="black"/>
</svg>
